# xmcd
#
# Track frame offsets:
#	150
#	15458
#	33042
#	49314
#	65475
#	81314
#	98661
#	119265
#	136930
#	153253
#	169075
#	184124
#	199183
#
# Disc length: 2895
#
# Revision: 2
# Processed by: cddbd v1.5.1PL0 Copyright (c) Steve Scherf et al.
# Submitted via: VisiTrax 2.9.5.180 - For more info visit www.synapsa.com
# Normalized: r1:DSETVAR1
#
DISCID=a30b4d0d
DTITLE=Various Artist - CDX 329 October 2003
DYEAR=2003
DGENRE=Country
TTITLE0=Alison Krauss and James Taylor - How's the world treating you
TTITLE1=Rebecca Lynn Howard - I need a vacation
TTITLE2=Cledus T. Judd - Martie, Emily and Natalie
TTITLE3=Dierks Bentley - My last name
TTITLE4=Colt Prather - Not a brick out of place
TTITLE5=Tracy Lawrence - Paint me a Birmingham
TTITLE6=Alan Jackson - Remember when
TTITLE7=Clint Black - Spend my time
TTITLE8=Buddy Jewell - Sweet Southern Comfort
TTITLE9=John Conlee - How high did you go
TTITLE10=Shane Sellers - Matthew, Mark, Luke and Earnhardt
TTITLE11=Kelsey DiMarco - Things like that
TTITLE12=Big Al Downing and Teresa Collier - What a man will do (a woman will too)
EXTD=
EXTT0=
EXTT1=
EXTT2=
EXTT3=
EXTT4=
EXTT5=
EXTT6=
EXTT7=
EXTT8=
EXTT9=
EXTT10=
EXTT11=
EXTT12=
PLAYORDER=
